# Blender v2.69 (sub 11) OBJ File: ''
# www.blender.org
o Cube
v 1.000000 -1.000000 -1.000000
v 1.000000 -1.000000 1.000000
v -1.000000 -1.000000 1.000000
v -1.000000 -1.000000 -1.000000
v 1.000000 1.000000 -0.999999
v 0.999999 1.000000 1.000001
v -1.000000 1.000000 1.000000
v -1.000000 1.000000 -1.000000
vn 0.577349 -0.577349 0.577349
vn -0.577349 -0.577349 0.577349
vn -0.577349 -0.577349 -0.577349
vn 0.577349 0.577349 -0.577349
vn -0.577349 0.577349 -0.577349
vn -0.577349 0.577349 0.577349
vn 0.577349 0.577349 0.577349
vn 0.577349 -0.577349 -0.577349
s 1
f 2//1 3//2 4//3
f 5//4 8//5 7//6
f 5//4 6//7 2//1
f 2//1 6//7 7//6
f 7//6 8//5 4//3
f 1//8 4//3 8//5
f 1//8 2//1 4//3
f 6//7 5//4 7//6
f 1//8 5//4 2//1
f 3//2 2//1 7//6
f 3//2 7//6 4//3
f 5//4 1//8 8//5
